<svg width="1200" height="1500" viewBox="0 0 1200 1500" fill="none" xmlns="http://www.w3.org/2000/svg">
  <rect width="1200" height="1500" rx="72" fill="#F6EEE5"/>
  <rect x="62" y="62" width="1076" height="1376" rx="54" fill="url(#paint0_linear)"/>
  <circle cx="873" cy="361" r="220" fill="#E6CBBF" fill-opacity="0.58"/>
  <circle cx="402" cy="1128" r="308" fill="#F8F2EC" fill-opacity="0.85"/>
  <path d="M853 241C780.667 262.833 730.833 331 703.5 445.5C679.167 547.5 630.167 633.833 556.5 704.5C480.833 777.167 442.667 867.333 442 975C441.333 1082.67 484.833 1187.83 572.5 1290.5" stroke="#3A2A2A" stroke-width="4" stroke-linecap="round"/>
  <path d="M492.5 378C571.5 412.5 634 478.167 680 575C726 671.833 793.833 734.833 883.5 764C973.167 793.167 1024.67 852.667 1038 942.5" stroke="#B87867" stroke-width="3" stroke-linecap="round" stroke-dasharray="6 14"/>
  <rect x="318" y="339" width="305" height="764" rx="152.5" fill="#241C1C" fill-opacity="0.9"/>
  <path d="M463.5 473C495.167 472.333 523 483 547 505C571 527 583.667 556.5 585 593.5C586.333 631.833 574.167 665.667 548.5 695C522.833 724.333 491.667 744.333 455 755C442.333 758.333 431.5 766.5 422.5 779.5C413.5 792.5 409 806.833 409 822.5C409 858.833 423.833 891.667 453.5 921C483.167 950.333 520.833 965.333 566.5 966" stroke="#F5E7DD" stroke-width="4" stroke-linecap="round"/>
  <path d="M575 1002C541.667 1026.67 503.833 1040.67 461.5 1044C419.167 1047.33 381 1036.67 347 1012" stroke="#F5E7DD" stroke-width="4" stroke-linecap="round"/>
  <path d="M704 1174C789.333 1115.33 863.833 1092.17 927.5 1104.5C991.167 1116.83 1043.33 1155.17 1084 1219.5" stroke="#9E6A5E" stroke-width="3" stroke-linecap="round"/>
  <rect x="742" y="965" width="238" height="302" rx="32" fill="#FFF7F0" fill-opacity="0.9"/>
  <circle cx="861" cy="1057" r="52" fill="#E8D3C6"/>
  <path d="M792 1134H930" stroke="#3A2A2A" stroke-width="3" stroke-linecap="round"/>
  <path d="M792 1175H930" stroke="#B87867" stroke-width="3" stroke-linecap="round"/>
  <path d="M792 1216H896" stroke="#B89B72" stroke-width="3" stroke-linecap="round"/>
  <defs>
    <linearGradient id="paint0_linear" x1="600" y1="62" x2="600" y2="1438" gradientUnits="userSpaceOnUse">
      <stop stop-color="#FBF7F1"/>
      <stop offset="1" stop-color="#EEDFD2"/>
    </linearGradient>
  </defs>
</svg>
