<svg width="1200" height="630" viewBox="0 0 1200 630" fill="none" xmlns="http://www.w3.org/2000/svg">
  <rect width="1200" height="630" fill="#F6EEE5"/>
  <rect x="44" y="44" width="1112" height="542" rx="42" fill="#FFF8F2"/>
  <circle cx="935" cy="175" r="118" fill="#E7CCBE" fill-opacity="0.85"/>
  <circle cx="277" cy="470" r="138" fill="#EEDFD2" fill-opacity="0.95"/>
  <rect x="676" y="153" width="162" height="332" rx="81" fill="#241C1C" fill-opacity="0.92"/>
  <path d="M742 226V321" stroke="#F7EFE6" stroke-width="4" stroke-linecap="round"/>
  <path d="M742 351V400" stroke="#F7EFE6" stroke-width="4" stroke-linecap="round"/>
  <path d="M156 180C216 129.333 289 104 375 104C461 104 535.333 131.167 598 185.5C660.667 239.833 692 306 692 384" stroke="#B87867" stroke-width="4" stroke-linecap="round"/>
  <path d="M161 430C239.667 360.667 329 326 429 326C529 326 611.667 369.667 677 457" stroke="#B89B72" stroke-width="4" stroke-linecap="round" stroke-dasharray="8 18"/>
  <path d="M161 278H463" stroke="#241C1C" stroke-width="6" stroke-linecap="round"/>
  <path d="M161 332H539" stroke="#241C1C" stroke-width="6" stroke-linecap="round"/>
  <path d="M161 386H454" stroke="#B87867" stroke-width="6" stroke-linecap="round"/>
  <path d="M161 460H365" stroke="#241C1C" stroke-width="6" stroke-linecap="round"/>
</svg>
