<svg width="1200" height="1200" viewBox="0 0 1200 1200" fill="none" xmlns="http://www.w3.org/2000/svg">
  <rect width="1200" height="1200" rx="72" fill="#F2E5DA"/>
  <circle cx="859" cy="304" r="210" fill="#FFF7F1" fill-opacity="0.85"/>
  <circle cx="337" cy="900" r="240" fill="#E5C9BC" fill-opacity="0.8"/>
  <rect x="238" y="196" width="724" height="808" rx="60" fill="#FFF9F3"/>
  <path d="M650 334C595.333 334.667 551.333 360 518 410C484.667 460 468 521.667 468 595C468 671.667 490.333 742.333 535 807C579.667 871.667 642.667 904 724 904" stroke="#2E2323" stroke-width="4" stroke-linecap="round"/>
  <path d="M480 516C513.333 489.333 550 476 590 476C630 476 662.667 488.333 688 513" stroke="#B87867" stroke-width="3" stroke-linecap="round" stroke-dasharray="6 14"/>
  <path d="M527 675C564.333 711 610.667 729 666 729C721.333 729 767.667 711 805 675" stroke="#B89B72" stroke-width="4" stroke-linecap="round"/>
  <rect x="720" y="300" width="142" height="452" rx="71" fill="#241C1C" fill-opacity="0.92"/>
  <path d="M791 370V495" stroke="#F7EFE6" stroke-width="4" stroke-linecap="round"/>
  <path d="M791 539V603" stroke="#F7EFE6" stroke-width="4" stroke-linecap="round"/>
  <path d="M791 644V683" stroke="#F7EFE6" stroke-width="4" stroke-linecap="round"/>
</svg>
